<svg version="1.1" id="Layer_1" xmlns="http://www.w3.org/2000/svg" xmlns:xlink="http://www.w3.org/1999/xlink" x="0px" y="0px"
	 width="100%" viewBox="0 0 480 528" enable-background="new 0 0 480 528" xml:space="preserve">
<path fill="#0C5030" opacity="1.000000" stroke="none" 
	d="
M101.771973,493.771423 
	C122.652718,492.093292 143.101929,490.806427 163.453979,488.616608 
	C175.141174,487.359070 186.818253,485.451599 197.372406,479.301941 
	C208.272339,472.950836 214.067047,462.934784 215.346176,451.317078 
	C217.054138,435.804443 216.886963,420.072235 211.578384,404.877869 
	C206.378830,389.995575 195.175781,381.780914 179.372330,381.035980 
	C154.413010,379.859497 130.716980,384.577850 108.091309,395.078186 
	C103.071121,397.408020 97.689644,398.608521 92.168823,399.042542 
	C89.369713,399.262543 86.750237,398.781525 85.435722,395.873688 
	C83.907005,392.491974 87.010078,391.523071 88.796684,390.103821 
	C92.017967,387.544861 95.455002,385.257507 99.471771,382.376190 
	C92.739029,380.113098 86.830360,381.438751 82.023048,384.146515 
	C77.628761,386.621674 73.353088,388.265289 68.514107,388.582062 
	C59.414867,389.177765 50.338013,390.334381 41.265701,387.582520 
	C37.006397,386.290619 34.658569,382.901794 31.421923,380.529022 
	C29.863773,379.386719 29.859533,376.788422 31.864130,375.851227 
	C35.447971,374.175720 38.302650,370.084564 43.043484,372.361206 
	C44.686138,364.565826 48.038013,361.062042 54.949745,359.791382 
	C56.413849,359.522247 57.421902,358.850830 57.996098,357.538849 
	C58.994865,355.256775 60.841877,353.317780 61.770027,351.247375 
	C64.379807,345.425873 70.103058,343.346069 74.192314,339.376343 
	C74.787621,338.798462 75.869934,338.320282 75.960732,337.686218 
	C76.966568,330.662048 81.599182,331.282196 87.305946,330.304413 
	C97.461777,328.564331 107.463013,328.712341 117.571602,328.677368 
	C125.158089,328.651154 132.164566,331.315552 139.624084,332.946777 
	C135.521729,329.769623 131.455338,326.543793 127.282471,323.462097 
	C126.566711,322.933533 125.383339,322.797516 124.439102,322.855652 
	C113.307938,323.541229 102.183281,324.332886 91.051926,325.015198 
	C87.811775,325.213806 84.657600,325.947327 82.032570,327.677826 
	C77.297363,330.799438 72.106079,331.918152 66.764893,331.053925 
	C60.161087,329.985443 53.950001,332.577179 47.484417,332.282562 
	C44.295303,332.137268 40.952793,332.540741 39.917515,328.323822 
	C38.963593,324.438232 41.218899,318.556152 44.525146,317.132874 
	C48.492912,315.424774 52.088741,313.595184 52.276474,308.505157 
	C52.303085,307.783569 52.979984,306.519379 53.457195,306.469147 
	C57.912071,306.000488 60.284103,301.645172 63.530891,300.467987 
	C67.684326,298.962158 70.181267,296.199402 72.503769,293.473297 
	C74.982239,290.564056 77.848381,287.741486 79.365746,283.908295 
	C80.815247,280.246582 83.974304,280.131622 87.359528,281.517151 
	C91.826355,283.345337 98.174049,281.522339 101.022781,277.622742 
	C101.784958,276.579437 102.723022,275.583069 103.862961,276.290985 
	C106.861870,278.153412 110.084297,276.657867 113.008804,277.211761 
	C117.639961,278.088898 119.234184,275.846222 120.746124,272.294708 
	C122.390282,268.432648 124.665642,265.397369 129.839340,266.796295 
	C132.033463,267.389557 134.037964,265.143494 136.443283,265.225311 
	C132.279999,263.115967 128.085281,263.862274 124.149940,265.394531 
	C109.972778,270.914459 95.128250,273.962433 80.394562,277.375854 
	C72.343697,279.241028 64.545631,278.873291 58.114819,272.396576 
	C56.220818,270.489075 55.777214,268.969971 57.334702,266.809082 
	C58.595406,265.059937 59.904835,263.329498 60.214272,261.066376 
	C60.351665,260.061462 61.055954,258.641998 61.894665,258.833496 
	C67.155327,260.034698 69.830902,254.140350 75.521637,254.709885 
	C73.622009,249.347046 76.265594,246.077286 79.738312,242.940598 
	C82.944283,240.044846 84.979706,234.914490 91.278519,238.825745 
	C94.454605,230.737244 99.789856,235.154434 105.543365,236.870041 
	C103.788460,228.793839 111.558121,226.859268 114.291786,221.624802 
	C115.123962,220.031326 117.397049,221.271515 119.551582,221.140045 
	C121.185524,214.249130 126.982323,214.132889 132.810196,212.141953 
	C140.978027,209.351654 149.045151,212.910477 156.807907,210.151917 
	C157.534180,209.893829 158.624710,210.660782 160.272873,211.181366 
	C160.452042,207.250214 157.963943,207.403824 155.863861,207.219910 
	C145.627838,206.323456 135.581680,207.659653 125.726341,210.261917 
	C116.449059,212.711533 107.373375,212.213211 98.376282,209.249924 
	C96.495811,208.630585 94.754555,209.163467 92.951210,209.108612 
	C90.762657,209.042038 89.036247,208.190781 88.237228,206.062820 
	C87.405159,203.846786 88.094002,202.155502 89.558495,200.170349 
	C93.203239,195.229767 97.810814,191.932816 103.434570,189.609802 
	C105.836349,188.617676 105.875786,185.086258 108.371735,183.575043 
	C110.432693,182.327209 112.928520,181.503586 114.470055,179.160248 
	C113.363304,176.090439 108.412079,175.728027 109.323769,170.903061 
	C110.079689,166.902390 111.608498,163.936478 114.950569,162.060349 
	C118.411118,160.117676 122.367760,159.151031 125.547478,156.564072 
	C126.959114,155.415588 128.492462,156.175598 129.421600,157.547943 
	C130.917007,159.756699 132.858597,159.179749 134.766678,158.552734 
	C137.123535,157.778229 136.124466,156.064056 135.898788,154.424026 
	C135.360641,150.513397 137.661606,148.148071 141.642792,148.263962 
	C146.900391,148.417023 150.195145,144.583115 150.739838,139.642548 
	C151.393188,133.716293 150.609283,127.020943 157.533386,123.265778 
	C160.733276,121.530380 161.881927,116.886238 166.380539,116.373428 
	C165.992416,112.838707 164.220673,109.772369 165.711182,106.351204 
	C167.220215,102.887466 168.923691,99.869644 173.271744,100.578224 
	C177.034378,101.191391 176.261810,97.091957 178.328934,96.098480 
	C187.292313,100.689865 185.626938,99.049988 191.153076,92.194542 
	C193.263062,89.576996 195.092133,89.070183 197.941071,90.070206 
	C202.224640,91.573792 209.271271,87.221336 209.189697,82.764610 
	C209.059418,75.646263 219.121841,67.942924 225.945923,72.797195 
	C228.798782,74.826569 231.260864,74.999619 234.492798,71.739273 
	C237.809174,68.393738 242.385559,71.851402 245.608536,73.790321 
	C248.618195,75.600922 253.155060,74.494850 254.873520,78.613571 
	C254.916061,78.715530 255.513550,78.699646 255.778778,78.578247 
	C261.668427,75.882462 260.582733,80.089401 260.509644,82.532608 
	C267.360413,87.381920 266.255951,97.277458 273.473816,101.091064 
	C274.562897,100.571953 274.523926,99.483620 274.770813,98.539825 
	C275.077423,97.367531 275.527466,96.246674 276.903168,96.080536 
	C278.572876,95.878876 279.334595,97.126099 279.738342,98.397316 
	C280.743073,101.560623 282.267853,102.782417 285.994415,102.183884 
	C289.442657,101.630058 292.890350,105.136894 296.811066,102.820549 
	C297.600830,102.353966 298.752167,103.887505 299.336609,104.911575 
	C300.633453,107.184021 302.316498,108.619080 305.066040,109.207993 
	C308.124481,109.863052 311.786804,116.528107 310.672882,120.231049 
	C309.394897,124.479286 313.905792,126.564827 313.494141,130.252518 
	C313.477997,130.396835 314.437500,130.914536 314.781799,130.795135 
	C320.285950,128.886261 323.547119,133.842422 328.008514,135.111420 
	C331.178650,136.013123 333.017181,137.798553 330.445496,141.339066 
	C328.493530,144.026352 329.177032,147.421875 329.045868,150.433990 
	C328.941528,152.830582 328.183441,154.156830 326.378448,155.271103 
	C326.236816,155.358536 326.073456,155.434753 325.971100,155.558350 
	C316.275330,167.270218 302.360352,163.519119 290.006561,165.047318 
	C285.346649,165.623764 282.168304,166.749527 280.466400,171.220871 
	C285.651520,173.286499 290.089630,170.557816 294.328644,168.871216 
	C296.741699,167.911102 298.767151,167.475876 301.290100,167.443146 
	C307.573608,167.361618 313.868317,168.191833 320.162994,166.929031 
	C323.184570,166.322861 325.533600,168.310715 325.908020,171.255981 
	C326.480591,175.759888 330.166504,177.638031 332.252350,180.548141 
	C333.606781,180.470276 334.227722,179.987640 334.601837,179.167343 
	C335.215729,177.821304 335.590454,176.104202 337.484558,176.162628 
	C339.404419,176.221848 339.690491,177.920090 340.066071,179.367722 
	C340.902130,182.590088 342.846466,183.412384 345.656250,181.779099 
	C347.809662,180.527390 349.424957,180.770844 350.700531,182.915833 
	C351.627838,184.475220 352.660004,185.278000 354.751068,184.779037 
	C358.337494,183.923233 358.684509,188.484451 361.687988,189.246750 
	C363.132446,189.098816 363.955078,186.289413 366.202850,187.778214 
	C368.570923,189.346756 366.837585,190.933548 366.433624,192.569275 
	C366.282410,193.181656 366.254486,194.319962 366.554718,194.475220 
	C372.561554,197.581314 370.161438,205.892426 376.283630,209.395706 
	C380.860504,212.014725 378.333923,220.877197 372.984772,222.531708 
	C368.422119,223.942947 363.675446,224.888260 359.588501,227.820786 
	C360.346252,229.712387 360.989441,231.403503 361.697998,233.066742 
	C362.761261,235.562561 364.222382,236.664001 366.514282,234.269012 
	C368.070526,232.642776 369.797089,232.492798 371.302399,234.106674 
	C373.441864,236.400330 376.945404,236.764084 378.835419,238.528534 
	C383.776031,243.140900 391.014832,242.478271 395.072540,246.880203 
	C397.543243,247.145630 397.539673,244.463684 399.827057,244.788559 
	C401.604889,250.816589 406.142609,252.384476 412.339172,252.826950 
	C415.663696,253.064331 419.182068,256.070587 421.841461,258.629242 
	C424.615234,261.297943 422.266815,263.835114 419.619812,264.750397 
	C410.982880,267.736816 403.071991,272.272491 392.880219,270.940033 
	C386.067596,270.049408 378.617065,273.363556 371.571930,275.245087 
	C368.600311,276.038696 365.835602,277.646942 362.647003,278.059479 
	C368.506500,277.935699 374.491272,281.350555 380.127777,276.438324 
	C383.121887,273.828918 386.060730,274.641815 389.515747,277.065125 
	C393.753632,280.037567 398.695160,282.519135 404.395721,281.502655 
	C405.024994,281.390442 405.963379,281.219849 406.303467,281.547943 
	C410.982697,286.061890 417.359802,285.230286 422.925659,286.910614 
	C424.098541,287.264679 425.171844,287.616455 425.530731,288.918396 
	C425.912842,290.304626 425.001617,291.090668 424.051971,291.806610 
	C423.140381,292.493805 422.191864,293.131958 421.247528,294.159332 
	C425.783203,293.239868 428.710876,297.997864 433.231506,297.131104 
	C434.232635,296.939148 434.794586,298.093201 435.151520,299.109161 
	C437.270020,305.139832 439.473236,306.429565 446.317383,305.548035 
	C447.889191,305.345612 448.724457,306.061646 449.662140,307.150574 
	C452.349640,310.271393 455.110779,313.333893 457.949829,316.317596 
	C460.338867,318.828339 459.516022,320.862762 456.679016,321.511261 
	C450.534882,322.915741 444.416382,324.202057 438.798828,327.254456 
	C437.890503,327.748016 436.396515,327.710602 435.370178,327.353149 
	C427.612946,324.651459 419.572632,325.372955 411.607635,325.224792 
	C407.817413,325.154266 404.680847,322.746521 401.068634,322.309479 
	C393.006805,321.333893 385.025574,323.127869 377.408813,325.032257 
	C370.948517,326.647583 364.560730,326.660309 358.271790,326.547638 
	C350.113037,326.401489 341.987701,326.159698 333.842133,326.761719 
	C331.865967,326.907806 329.835266,326.974762 327.884003,326.696655 
	C310.164978,324.171387 296.044586,329.607452 285.889618,344.830322 
	C277.985779,356.678650 273.245880,369.698517 270.249176,383.476379 
	C265.691406,404.431915 264.094391,425.553680 266.225098,446.956482 
	C267.003876,454.778931 269.806763,461.467590 275.381195,466.926910 
	C286.569977,477.884644 299.103088,485.351532 315.384766,487.300720 
	C340.195435,490.271027 365.074707,491.966339 389.945709,494.009613 
	C403.230164,495.100983 416.490204,496.312500 429.838409,496.189514 
	C431.904968,496.170441 434.819336,496.039062 434.688873,499.084991 
	C434.567719,501.913574 431.771179,501.245422 429.911835,501.251251 
	C402.745941,501.336487 375.579895,501.351959 348.413910,501.412537 
	C281.765930,501.561218 215.116150,502.074310 148.470703,501.735016 
	C114.977829,501.564514 81.482124,501.574036 47.989220,501.257263 
	C47.156258,501.249390 46.320137,501.262726 45.491337,501.194824 
	C43.909916,501.065277 42.330276,500.705688 42.466583,498.691406 
	C42.580906,497.001953 44.045490,496.719757 45.427940,496.659302 
	C49.087730,496.499298 52.752659,496.444305 56.410240,496.248444 
	C71.374466,495.447113 86.336723,494.608856 101.771973,493.771423 
M205.016403,345.488403 
	C197.383865,339.566833 189.843323,333.521667 182.095428,327.755035 
	C172.490723,320.606445 161.279846,321.913361 148.998688,321.171082 
	C151.122284,323.433258 152.029160,324.634308 153.158478,325.565643 
	C163.308731,333.936340 173.560577,342.166840 184.300629,349.794098 
	C196.918655,358.755005 210.012253,367.005035 222.003922,376.908813 
	C238.598312,390.613953 245.860855,407.235565 242.490891,428.865875 
	C241.017822,438.321045 240.415146,448.076508 241.130310,457.765137 
	C241.391327,461.301422 241.725632,464.804596 244.212341,467.698975 
	C243.203445,459.457550 244.895035,451.438599 245.524033,443.361511 
	C246.440094,431.598022 248.766373,419.916473 247.811096,408.042572 
	C246.835327,395.913574 244.085480,384.408478 236.000595,374.748840 
	C226.967697,363.956512 216.144455,355.085663 205.016403,345.488403 
M328.451660,301.939270 
	C338.577850,294.830261 348.451508,287.409790 357.437805,278.762329 
	C347.865662,283.275482 338.632843,288.281189 327.680573,287.843872 
	C326.902771,287.812836 326.105988,288.333923 325.313385,288.583466 
	C311.704376,292.868042 302.910461,303.458344 292.485168,313.081146 
	C316.686829,310.984924 317.367371,310.776306 328.451660,301.939270 
M207.913467,293.555359 
	C202.519012,289.731049 196.676773,291.914215 190.737503,291.459961 
	C199.039795,309.693329 211.646240,323.384216 226.907288,336.597534 
	C222.872772,326.999268 218.480057,319.013062 215.521072,310.366882 
	C213.609985,304.782684 212.295364,298.842163 207.913467,293.555359 
M230.448288,241.343933 
	C228.104950,238.361008 225.461685,235.731522 221.747391,233.608871 
	C221.592148,234.695816 221.295135,235.359955 221.450806,235.891495 
	C225.870178,250.981598 228.867172,266.479645 235.689514,280.865601 
	C241.188553,292.461151 251.277344,301.612000 253.777420,314.840393 
	C246.923721,290.282135 237.224670,266.666870 230.448288,241.343933 
M273.848785,300.171112 
	C270.967133,307.666443 271.543396,315.731415 269.984772,323.510529 
	C276.321259,306.979340 288.851593,294.235626 297.438019,278.862732 
	C286.344696,276.775482 276.294891,285.878571 273.848785,300.171112 
M258.516052,268.726288 
	C258.698914,258.234833 260.487610,247.897827 261.552063,237.491882 
	C262.130005,231.842010 260.734833,226.486252 260.494293,221.046188 
	C257.442841,221.029480 256.129486,222.417374 255.121994,223.905334 
	C251.358185,229.464096 249.614166,235.627029 250.520477,242.332962 
	C251.681335,250.922409 254.249741,259.198242 256.512573,267.535797 
	C256.728668,268.331909 256.650208,269.725250 258.516052,268.726288 
M217.221512,179.084747 
	C213.116943,178.383194 208.928543,176.983154 204.748962,180.614883 
	C210.558731,184.995819 214.823563,190.484085 220.028625,195.159348 
	C219.651367,190.682373 219.660370,186.630875 220.871506,182.607178 
	C221.603058,180.176880 220.165192,179.304230 217.221512,179.084747 
M255.795212,156.569458 
	C252.024765,158.641663 248.192352,160.609741 244.497818,162.809433 
	C238.301743,166.498550 236.161316,173.376770 239.177277,182.081284 
	C244.840363,171.795547 246.821884,159.470947 260.972504,156.006866 
	C258.048889,155.150375 257.250824,155.831726 255.795212,156.569458 
M276.301422,233.088455 
	C281.589630,230.802490 285.787354,227.067902 289.945740,222.916809 
	C286.845581,222.305878 283.924591,222.128418 281.032959,222.344055 
	C275.577057,222.750900 273.083069,227.845215 276.301422,233.088455 
M156.061676,300.554810 
	C161.802628,299.402527 167.543594,298.250275 173.539307,297.046875 
	C171.153030,293.998291 171.116135,293.852020 169.018326,294.381104 
	C158.023163,297.154144 147.279068,301.153320 135.676620,301.129242 
	C142.229050,302.019287 148.730621,302.084015 156.061676,300.554810 
M250.422409,200.969376 
	C251.746689,199.838120 253.822815,199.556244 254.528061,197.166733 
	C249.884445,196.602707 244.794220,194.153229 241.158112,197.468765 
	C238.617447,199.785431 241.345856,203.772110 242.694321,207.316940 
	C245.330170,205.135818 247.599060,203.258316 250.422409,200.969376 
M136.467697,357.168243 
	C142.018402,359.308197 147.569107,361.448151 153.934998,363.902405 
	C147.366547,357.123322 140.705658,352.812836 131.575348,353.390381 
	C132.398300,355.640442 134.308823,355.992737 136.467697,357.168243 
M200.348770,254.190903 
	C198.103485,252.957642 195.858215,251.724380 193.612930,250.491119 
	C193.459030,250.725723 193.305130,250.960342 193.151230,251.194946 
	C199.152039,256.640381 205.152863,262.085846 211.796387,268.114502 
	C210.684753,260.761200 205.940918,257.572968 200.348770,254.190903 
M254.552689,340.654419 
	C254.688889,337.900055 254.825089,335.145660 254.961288,332.391296 
	C254.025299,337.164459 254.025299,337.164459 252.084549,340.526825 
	C246.214035,332.832123 243.292389,323.597931 236.741425,316.834259 
	C241.987503,326.213562 247.233582,335.592896 252.504211,345.016083 
	C254.102371,344.086853 253.623703,342.467346 254.552689,340.654419 
M203.726791,245.449539 
	C198.592926,238.779007 195.566010,237.483994 189.854279,240.012665 
	C195.121353,242.995392 200.062790,245.793686 206.193649,249.265564 
	C204.958649,247.334274 204.517807,246.644882 203.726791,245.449539 
M175.884033,272.211670 
	C174.761841,272.452515 173.284271,271.520569 172.325897,273.569519 
	C178.616394,275.337860 184.670944,277.218018 192.241821,276.800781 
	C186.964661,272.405609 181.532898,273.411041 175.884033,272.211670 
M201.701569,148.737885 
	C205.418930,148.647797 208.546555,151.180069 212.260529,151.153351 
	C205.352341,147.933655 198.523788,144.489151 189.558914,144.120819 
	C193.450546,147.601974 197.335403,147.649612 201.701569,148.737885 
M170.940109,195.630432 
	C175.165298,198.044693 179.310287,200.645020 184.228882,201.472763 
	C178.342468,198.654266 173.412216,193.896530 166.545685,193.076401 
	C167.809265,193.812622 169.072845,194.548828 170.940109,195.630432 
M329.464600,275.201141 
	C330.602997,274.530304 332.527893,274.780304 332.495605,272.533447 
	C328.368378,271.764038 324.819031,272.352295 322.109161,276.141785 
	C324.686920,277.506287 326.676788,275.846344 329.464600,275.201141 
z"/>
</svg>